Output #0, mp3, to '02.mp3':
    Stream #0:0: Audio: mp3, 44100 Hz, stereo, s32p, 64 kb/s
pts:-1105 pts_time:-0.0250567 dts:-1105 dts_time:-0.0250567 duration:1152 duration_time:0.0261224 stream_index:0
pts:47 pts_time:0.00106576 dts:47 dts_time:0.00106576 duration:1152 duration_time:0.0261224 stream_index:0
pts:1199 pts_time:0.0271882 dts:1199 dts_time:0.0271882 duration:1152 duration_time:0.0261224 stream_index:0
pts:2351 pts_time:0.0533107 dts:2351 dts_time:0.0533107 duration:1152 duration_time:0.0261224 stream_index:0
pts:3503 pts_time:0.0794331 dts:3503 dts_time:0.0794331 duration:1152 duration_time:0.0261224 stream_index:0
pts:4655 pts_time:0.105556 dts:4655 dts_time:0.105556 duration:1152 duration_time:0.0261224 stream_index:0
pts:5807 pts_time:0.131678 dts:5807 dts_time:0.131678 duration:1152 duration_time:0.0261224 stream_index:0
pts:6959 pts_time:0.1578 dts:6959 dts_time:0.1578 duration:1152 duration_time:0.0261224 stream_index:0
pts:8111 pts_time:0.183923 dts:8111 dts_time:0.183923 duration:1152 duration_time:0.0261224 stream_index:0
pts:9263 pts_time:0.210045 dts:9263 dts_time:0.210045 duration:1152 duration_time:0.0261224 stream_index:0
pts:10415 pts_time:0.236168 dts:10415 dts_time:0.236168 duration:1152 duration_time:0.0261224 stream_index:0
pts:11567 pts_time:0.26229 dts:11567 dts_time:0.26229 duration:1152 duration_time:0.0261224 stream_index:0
pts:12719 pts_time:0.288413 dts:12719 dts_time:0.288413 duration:1152 duration_time:0.0261224 stream_index:0
pts:13871 pts_time:0.314535 dts:13871 dts_time:0.314535 duration:1152 duration_time:0.0261224 stream_index:0
pts:15023 pts_time:0.340658 dts:15023 dts_time:0.340658 duration:1152 duration_time:0.0261224 stream_index:0
pts:16175 pts_time:0.36678 dts:16175 dts_time:0.36678 duration:1152 duration_time:0.0261224 stream_index:0
pts:17327 pts_time:0.392902 dts:17327 dts_time:0.392902 duration:1152 duration_time:0.0261224 stream_index:0
pts:18479 pts_time:0.419025 dts:18479 dts_time:0.419025 duration:1152 duration_time:0.0261224 stream_index:0
pts:19631 pts_time:0.445147 dts:19631 dts_time:0.445147 duration:1152 duration_time:0.0261224 stream_index:0
pts:20783 pts_time:0.47127 dts:20783 dts_time:0.47127 duration:1152 duration_time:0.0261224 stream_index:0
pts:21935 pts_time:0.497392 dts:21935 dts_time:0.497392 duration:1152 duration_time:0.0261224 stream_index:0
pts:23087 pts_time:0.523515 dts:23087 dts_time:0.523515 duration:1152 duration_time:0.0261224 stream_index:0
pts:24239 pts_time:0.549637 dts:24239 dts_time:0.549637 duration:1152 duration_time:0.0261224 stream_index:0
pts:25391 pts_time:0.57576 dts:25391 dts_time:0.57576 duration:1152 duration_time:0.0261224 stream_index:0
pts:26543 pts_time:0.601882 dts:26543 dts_time:0.601882 duration:1152 duration_time:0.0261224 stream_index:0
pts:27695 pts_time:0.628005 dts:27695 dts_time:0.628005 duration:1152 duration_time:0.0261224 stream_index:0
pts:28847 pts_time:0.654127 dts:28847 dts_time:0.654127 duration:1152 duration_time:0.0261224 stream_index:0
pts:29999 pts_time:0.680249 dts:29999 dts_time:0.680249 duration:1152 duration_time:0.0261224 stream_index:0
pts:31151 pts_time:0.706372 dts:31151 dts_time:0.706372 duration:1152 duration_time:0.0261224 stream_index:0
pts:32303 pts_time:0.732494 dts:32303 dts_time:0.732494 duration:1152 duration_time:0.0261224 stream_index:0
pts:33455 pts_time:0.758617 dts:33455 dts_time:0.758617 duration:1152 duration_time:0.0261224 stream_index:0
pts:34607 pts_time:0.784739 dts:34607 dts_time:0.784739 duration:1152 duration_time:0.0261224 stream_index:0
pts:35759 pts_time:0.810862 dts:35759 dts_time:0.810862 duration:1152 duration_time:0.0261224 stream_index:0
pts:36911 pts_time:0.836984 dts:36911 dts_time:0.836984 duration:1152 duration_time:0.0261224 stream_index:0
pts:38063 pts_time:0.863107 dts:38063 dts_time:0.863107 duration:1152 duration_time:0.0261224 stream_index:0
pts:39215 pts_time:0.889229 dts:39215 dts_time:0.889229 duration:1152 duration_time:0.0261224 stream_index:0
pts:40367 pts_time:0.915351 dts:40367 dts_time:0.915351 duration:1152 duration_time:0.0261224 stream_index:0
pts:41519 pts_time:0.941474 dts:41519 dts_time:0.941474 duration:1152 duration_time:0.0261224 stream_index:0
pts:42671 pts_time:0.967596 dts:42671 dts_time:0.967596 duration:1152 duration_time:0.0261224 stream_index:0
pts:43823 pts_time:0.993719 dts:43823 dts_time:0.993719 duration:1152 duration_time:0.0261224 stream_index:0
pts:44975 pts_time:1.01984 dts:44975 dts_time:1.01984 duration:1152 duration_time:0.0261224 stream_index:0
pts:46127 pts_time:1.04596 dts:46127 dts_time:1.04596 duration:1152 duration_time:0.0261224 stream_index:0
pts:47279 pts_time:1.07209 dts:47279 dts_time:1.07209 duration:1152 duration_time:0.0261224 stream_index:0
pts:48431 pts_time:1.09821 dts:48431 dts_time:1.09821 duration:1152 duration_time:0.0261224 stream_index:0
pts:49583 pts_time:1.12433 dts:49583 dts_time:1.12433 duration:1152 duration_time:0.0261224 stream_index:0
pts:50735 pts_time:1.15045 dts:50735 dts_time:1.15045 duration:1152 duration_time:0.0261224 stream_index:0
pts:51887 pts_time:1.17658 dts:51887 dts_time:1.17658 duration:1152 duration_time:0.0261224 stream_index:0
pts:53039 pts_time:1.2027 dts:53039 dts_time:1.2027 duration:1152 duration_time:0.0261224 stream_index:0
pts:54191 pts_time:1.22882 dts:54191 dts_time:1.22882 duration:1152 duration_time:0.0261224 stream_index:0
pts:55343 pts_time:1.25494 dts:55343 dts_time:1.25494 duration:1152 duration_time:0.0261224 stream_index:0
pts:56495 pts_time:1.28107 dts:56495 dts_time:1.28107 duration:1152 duration_time:0.0261224 stream_index:0
pts:57647 pts_time:1.30719 dts:57647 dts_time:1.30719 duration:1152 duration_time:0.0261224 stream_index:0
pts:58799 pts_time:1.33331 dts:58799 dts_time:1.33331 duration:1152 duration_time:0.0261224 stream_index:0
pts:59951 pts_time:1.35943 dts:59951 dts_time:1.35943 duration:1152 duration_time:0.0261224 stream_index:0
pts:61103 pts_time:1.38556 dts:61103 dts_time:1.38556 duration:1152 duration_time:0.0261224 stream_index:0
pts:62255 pts_time:1.41168 dts:62255 dts_time:1.41168 duration:1152 duration_time:0.0261224 stream_index:0
pts:63407 pts_time:1.4378 dts:63407 dts_time:1.4378 duration:1152 duration_time:0.0261224 stream_index:0
pts:64559 pts_time:1.46392 dts:64559 dts_time:1.46392 duration:1152 duration_time:0.0261224 stream_index:0
pts:65711 pts_time:1.49005 dts:65711 dts_time:1.49005 duration:1152 duration_time:0.0261224 stream_index:0
pts:66863 pts_time:1.51617 dts:66863 dts_time:1.51617 duration:1152 duration_time:0.0261224 stream_index:0
pts:68015 pts_time:1.54229 dts:68015 dts_time:1.54229 duration:1152 duration_time:0.0261224 stream_index:0
pts:69167 pts_time:1.56841 dts:69167 dts_time:1.56841 duration:1152 duration_time:0.0261224 stream_index:0
pts:70319 pts_time:1.59454 dts:70319 dts_time:1.59454 duration:1152 duration_time:0.0261224 stream_index:0
pts:71471 pts_time:1.62066 dts:71471 dts_time:1.62066 duration:1152 duration_time:0.0261224 stream_index:0
pts:72623 pts_time:1.64678 dts:72623 dts_time:1.64678 duration:1152 duration_time:0.0261224 stream_index:0
pts:73775 pts_time:1.6729 dts:73775 dts_time:1.6729 duration:1152 duration_time:0.0261224 stream_index:0
pts:74927 pts_time:1.69902 dts:74927 dts_time:1.69902 duration:1152 duration_time:0.0261224 stream_index:0
pts:76079 pts_time:1.72515 dts:76079 dts_time:1.72515 duration:1152 duration_time:0.0261224 stream_index:0
pts:77231 pts_time:1.75127 dts:77231 dts_time:1.75127 duration:1152 duration_time:0.0261224 stream_index:0
pts:78383 pts_time:1.77739 dts:78383 dts_time:1.77739 duration:1152 duration_time:0.0261224 stream_index:0
pts:79535 pts_time:1.80351 dts:79535 dts_time:1.80351 duration:1152 duration_time:0.0261224 stream_index:0
pts:80687 pts_time:1.82964 dts:80687 dts_time:1.82964 duration:1152 duration_time:0.0261224 stream_index:0
pts:81839 pts_time:1.85576 dts:81839 dts_time:1.85576 duration:1152 duration_time:0.0261224 stream_index:0
pts:82991 pts_time:1.88188 dts:82991 dts_time:1.88188 duration:1152 duration_time:0.0261224 stream_index:0
pts:84143 pts_time:1.908 dts:84143 dts_time:1.908 duration:1152 duration_time:0.0261224 stream_index:0
pts:85295 pts_time:1.93413 dts:85295 dts_time:1.93413 duration:1152 duration_time:0.0261224 stream_index:0
pts:86447 pts_time:1.96025 dts:86447 dts_time:1.96025 duration:1152 duration_time:0.0261224 stream_index:0
pts:87599 pts_time:1.98637 dts:87599 dts_time:1.98637 duration:1152 duration_time:0.0261224 stream_index:0
pts:88751 pts_time:2.01249 dts:88751 dts_time:2.01249 duration:1152 duration_time:0.0261224 stream_index:0
pts:89903 pts_time:2.03862 dts:89903 dts_time:2.03862 duration:1152 duration_time:0.0261224 stream_index:0
pts:91055 pts_time:2.06474 dts:91055 dts_time:2.06474 duration:1152 duration_time:0.0261224 stream_index:0
pts:92207 pts_time:2.09086 dts:92207 dts_time:2.09086 duration:1152 duration_time:0.0261224 stream_index:0
pts:93359 pts_time:2.11698 dts:93359 dts_time:2.11698 duration:1152 duration_time:0.0261224 stream_index:0
pts:94511 pts_time:2.14311 dts:94511 dts_time:2.14311 duration:1152 duration_time:0.0261224 stream_index:0
pts:95663 pts_time:2.16923 dts:95663 dts_time:2.16923 duration:1152 duration_time:0.0261224 stream_index:0
pts:96815 pts_time:2.19535 dts:96815 dts_time:2.19535 duration:1152 duration_time:0.0261224 stream_index:0
pts:97967 pts_time:2.22147 dts:97967 dts_time:2.22147 duration:1152 duration_time:0.0261224 stream_index:0
pts:99119 pts_time:2.2476 dts:99119 dts_time:2.2476 duration:1152 duration_time:0.0261224 stream_index:0
pts:100271 pts_time:2.27372 dts:100271 dts_time:2.27372 duration:1152 duration_time:0.0261224 stream_index:0
pts:101423 pts_time:2.29984 dts:101423 dts_time:2.29984 duration:1152 duration_time:0.0261224 stream_index:0
pts:102575 pts_time:2.32596 dts:102575 dts_time:2.32596 duration:1152 duration_time:0.0261224 stream_index:0
pts:103727 pts_time:2.35209 dts:103727 dts_time:2.35209 duration:1152 duration_time:0.0261224 stream_index:0
pts:104879 pts_time:2.37821 dts:104879 dts_time:2.37821 duration:1152 duration_time:0.0261224 stream_index:0
pts:106031 pts_time:2.40433 dts:106031 dts_time:2.40433 duration:1152 duration_time:0.0261224 stream_index:0
pts:107183 pts_time:2.43045 dts:107183 dts_time:2.43045 duration:1152 duration_time:0.0261224 stream_index:0
pts:108335 pts_time:2.45658 dts:108335 dts_time:2.45658 duration:1152 duration_time:0.0261224 stream_index:0
pts:109487 pts_time:2.4827 dts:109487 dts_time:2.4827 duration:1152 duration_time:0.0261224 stream_index:0
pts:110639 pts_time:2.50882 dts:110639 dts_time:2.50882 duration:1152 duration_time:0.0261224 stream_index:0
pts:111791 pts_time:2.53494 dts:111791 dts_time:2.53494 duration:1152 duration_time:0.0261224 stream_index:0
pts:112943 pts_time:2.56107 dts:112943 dts_time:2.56107 duration:1152 duration_time:0.0261224 stream_index:0
pts:114095 pts_time:2.58719 dts:114095 dts_time:2.58719 duration:1152 duration_time:0.0261224 stream_index:0
pts:115247 pts_time:2.61331 dts:115247 dts_time:2.61331 duration:1152 duration_time:0.0261224 stream_index:0
pts:116399 pts_time:2.63943 dts:116399 dts_time:2.63943 duration:1152 duration_time:0.0261224 stream_index:0
pts:117551 pts_time:2.66556 dts:117551 dts_time:2.66556 duration:1152 duration_time:0.0261224 stream_index:0
pts:118703 pts_time:2.69168 dts:118703 dts_time:2.69168 duration:1152 duration_time:0.0261224 stream_index:0
pts:119855 pts_time:2.7178 dts:119855 dts_time:2.7178 duration:1152 duration_time:0.0261224 stream_index:0
pts:121007 pts_time:2.74392 dts:121007 dts_time:2.74392 duration:1152 duration_time:0.0261224 stream_index:0
pts:122159 pts_time:2.77005 dts:122159 dts_time:2.77005 duration:1152 duration_time:0.0261224 stream_index:0
pts:123311 pts_time:2.79617 dts:123311 dts_time:2.79617 duration:1152 duration_time:0.0261224 stream_index:0
pts:124463 pts_time:2.82229 dts:124463 dts_time:2.82229 duration:1152 duration_time:0.0261224 stream_index:0
pts:125615 pts_time:2.84841 dts:125615 dts_time:2.84841 duration:1152 duration_time:0.0261224 stream_index:0
pts:126767 pts_time:2.87454 dts:126767 dts_time:2.87454 duration:1152 duration_time:0.0261224 stream_index:0
pts:127919 pts_time:2.90066 dts:127919 dts_time:2.90066 duration:1152 duration_time:0.0261224 stream_index:0
pts:129071 pts_time:2.92678 dts:129071 dts_time:2.92678 duration:1152 duration_time:0.0261224 stream_index:0
pts:130223 pts_time:2.9529 dts:130223 dts_time:2.9529 duration:1152 duration_time:0.0261224 stream_index:0
pts:131375 pts_time:2.97902 dts:131375 dts_time:2.97902 duration:1152 duration_time:0.0261224 stream_index:0
pts:132527 pts_time:3.00515 dts:132527 dts_time:3.00515 duration:1152 duration_time:0.0261224 stream_index:0
pts:133679 pts_time:3.03127 dts:133679 dts_time:3.03127 duration:1152 duration_time:0.0261224 stream_index:0
pts:134831 pts_time:3.05739 dts:134831 dts_time:3.05739 duration:1152 duration_time:0.0261224 stream_index:0
pts:135983 pts_time:3.08351 dts:135983 dts_time:3.08351 duration:1152 duration_time:0.0261224 stream_index:0
pts:137135 pts_time:3.10964 dts:137135 dts_time:3.10964 duration:1152 duration_time:0.0261224 stream_index:0
pts:138287 pts_time:3.13576 dts:138287 dts_time:3.13576 duration:1152 duration_time:0.0261224 stream_index:0
pts:139439 pts_time:3.16188 dts:139439 dts_time:3.16188 duration:1152 duration_time:0.0261224 stream_index:0
pts:140591 pts_time:3.188 dts:140591 dts_time:3.188 duration:1152 duration_time:0.0261224 stream_index:0
pts:141743 pts_time:3.21413 dts:141743 dts_time:3.21413 duration:1152 duration_time:0.0261224 stream_index:0
pts:142895 pts_time:3.24025 dts:142895 dts_time:3.24025 duration:1152 duration_time:0.0261224 stream_index:0
pts:144047 pts_time:3.26637 dts:144047 dts_time:3.26637 duration:1152 duration_time:0.0261224 stream_index:0
pts:145199 pts_time:3.29249 dts:145199 dts_time:3.29249 duration:1152 duration_time:0.0261224 stream_index:0
pts:146351 pts_time:3.31862 dts:146351 dts_time:3.31862 duration:1152 duration_time:0.0261224 stream_index:0
pts:147503 pts_time:3.34474 dts:147503 dts_time:3.34474 duration:1152 duration_time:0.0261224 stream_index:0
pts:148655 pts_time:3.37086 dts:148655 dts_time:3.37086 duration:1152 duration_time:0.0261224 stream_index:0
pts:149807 pts_time:3.39698 dts:149807 dts_time:3.39698 duration:1152 duration_time:0.0261224 stream_index:0
pts:150959 pts_time:3.42311 dts:150959 dts_time:3.42311 duration:1152 duration_time:0.0261224 stream_index:0
pts:152111 pts_time:3.44923 dts:152111 dts_time:3.44923 duration:1152 duration_time:0.0261224 stream_index:0
pts:153263 pts_time:3.47535 dts:153263 dts_time:3.47535 duration:1152 duration_time:0.0261224 stream_index:0
pts:154415 pts_time:3.50147 dts:154415 dts_time:3.50147 duration:1152 duration_time:0.0261224 stream_index:0
pts:155567 pts_time:3.5276 dts:155567 dts_time:3.5276 duration:1152 duration_time:0.0261224 stream_index:0
pts:156719 pts_time:3.55372 dts:156719 dts_time:3.55372 duration:1152 duration_time:0.0261224 stream_index:0
pts:157871 pts_time:3.57984 dts:157871 dts_time:3.57984 duration:1152 duration_time:0.0261224 stream_index:0
pts:159023 pts_time:3.60596 dts:159023 dts_time:3.60596 duration:1152 duration_time:0.0261224 stream_index:0
pts:160175 pts_time:3.63209 dts:160175 dts_time:3.63209 duration:1152 duration_time:0.0261224 stream_index:0
pts:161327 pts_time:3.65821 dts:161327 dts_time:3.65821 duration:1152 duration_time:0.0261224 stream_index:0
pts:162479 pts_time:3.68433 dts:162479 dts_time:3.68433 duration:1152 duration_time:0.0261224 stream_index:0
pts:163631 pts_time:3.71045 dts:163631 dts_time:3.71045 duration:1152 duration_time:0.0261224 stream_index:0
pts:164783 pts_time:3.73658 dts:164783 dts_time:3.73658 duration:1152 duration_time:0.0261224 stream_index:0
pts:165935 pts_time:3.7627 dts:165935 dts_time:3.7627 duration:1152 duration_time:0.0261224 stream_index:0
pts:167087 pts_time:3.78882 dts:167087 dts_time:3.78882 duration:1152 duration_time:0.0261224 stream_index:0
pts:168239 pts_time:3.81494 dts:168239 dts_time:3.81494 duration:1152 duration_time:0.0261224 stream_index:0
pts:169391 pts_time:3.84107 dts:169391 dts_time:3.84107 duration:1152 duration_time:0.0261224 stream_index:0
pts:170543 pts_time:3.86719 dts:170543 dts_time:3.86719 duration:1152 duration_time:0.0261224 stream_index:0
pts:171695 pts_time:3.89331 dts:171695 dts_time:3.89331 duration:1152 duration_time:0.0261224 stream_index:0
pts:172847 pts_time:3.91943 dts:172847 dts_time:3.91943 duration:1152 duration_time:0.0261224 stream_index:0
pts:173999 pts_time:3.94556 dts:173999 dts_time:3.94556 duration:1152 duration_time:0.0261224 stream_index:0
pts:175151 pts_time:3.97168 dts:175151 dts_time:3.97168 duration:1152 duration_time:0.0261224 stream_index:0
pts:176303 pts_time:3.9978 dts:176303 dts_time:3.9978 duration:1152 duration_time:0.0261224 stream_index:0
pts:177455 pts_time:4.02392 dts:177455 dts_time:4.02392 duration:1152 duration_time:0.0261224 stream_index:0
pts:178607 pts_time:4.05005 dts:178607 dts_time:4.05005 duration:1152 duration_time:0.0261224 stream_index:0
pts:179759 pts_time:4.07617 dts:179759 dts_time:4.07617 duration:1152 duration_time:0.0261224 stream_index:0
pts:180911 pts_time:4.10229 dts:180911 dts_time:4.10229 duration:1152 duration_time:0.0261224 stream_index:0
pts:182063 pts_time:4.12841 dts:182063 dts_time:4.12841 duration:1152 duration_time:0.0261224 stream_index:0
pts:183215 pts_time:4.15454 dts:183215 dts_time:4.15454 duration:1152 duration_time:0.0261224 stream_index:0
pts:184367 pts_time:4.18066 dts:184367 dts_time:4.18066 duration:1152 duration_time:0.0261224 stream_index:0
pts:185519 pts_time:4.20678 dts:185519 dts_time:4.20678 duration:1152 duration_time:0.0261224 stream_index:0
pts:186671 pts_time:4.2329 dts:186671 dts_time:4.2329 duration:1152 duration_time:0.0261224 stream_index:0
pts:187823 pts_time:4.25902 dts:187823 dts_time:4.25902 duration:1152 duration_time:0.0261224 stream_index:0
pts:188975 pts_time:4.28515 dts:188975 dts_time:4.28515 duration:1152 duration_time:0.0261224 stream_index:0
pts:190127 pts_time:4.31127 dts:190127 dts_time:4.31127 duration:1152 duration_time:0.0261224 stream_index:0
pts:191279 pts_time:4.33739 dts:191279 dts_time:4.33739 duration:1152 duration_time:0.0261224 stream_index:0
pts:192431 pts_time:4.36351 dts:192431 dts_time:4.36351 duration:1152 duration_time:0.0261224 stream_index:0
pts:193583 pts_time:4.38964 dts:193583 dts_time:4.38964 duration:1152 duration_time:0.0261224 stream_index:0
pts:194735 pts_time:4.41576 dts:194735 dts_time:4.41576 duration:1152 duration_time:0.0261224 stream_index:0
pts:195887 pts_time:4.44188 dts:195887 dts_time:4.44188 duration:1152 duration_time:0.0261224 stream_index:0
pts:197039 pts_time:4.468 dts:197039 dts_time:4.468 duration:1152 duration_time:0.0261224 stream_index:0
pts:198191 pts_time:4.49413 dts:198191 dts_time:4.49413 duration:1152 duration_time:0.0261224 stream_index:0
pts:199343 pts_time:4.52025 dts:199343 dts_time:4.52025 duration:1152 duration_time:0.0261224 stream_index:0
pts:200495 pts_time:4.54637 dts:200495 dts_time:4.54637 duration:1152 duration_time:0.0261224 stream_index:0
pts:201647 pts_time:4.57249 dts:201647 dts_time:4.57249 duration:1152 duration_time:0.0261224 stream_index:0
pts:202799 pts_time:4.59862 dts:202799 dts_time:4.59862 duration:1152 duration_time:0.0261224 stream_index:0
pts:203951 pts_time:4.62474 dts:203951 dts_time:4.62474 duration:1152 duration_time:0.0261224 stream_index:0
pts:205103 pts_time:4.65086 dts:205103 dts_time:4.65086 duration:1152 duration_time:0.0261224 stream_index:0
pts:206255 pts_time:4.67698 dts:206255 dts_time:4.67698 duration:1152 duration_time:0.0261224 stream_index:0
pts:207407 pts_time:4.70311 dts:207407 dts_time:4.70311 duration:1152 duration_time:0.0261224 stream_index:0
pts:208559 pts_time:4.72923 dts:208559 dts_time:4.72923 duration:1152 duration_time:0.0261224 stream_index:0
pts:209711 pts_time:4.75535 dts:209711 dts_time:4.75535 duration:1152 duration_time:0.0261224 stream_index:0
pts:210863 pts_time:4.78147 dts:210863 dts_time:4.78147 duration:1152 duration_time:0.0261224 stream_index:0
pts:212015 pts_time:4.8076 dts:212015 dts_time:4.8076 duration:1152 duration_time:0.0261224 stream_index:0
pts:213167 pts_time:4.83372 dts:213167 dts_time:4.83372 duration:1152 duration_time:0.0261224 stream_index:0
pts:214319 pts_time:4.85984 dts:214319 dts_time:4.85984 duration:1152 duration_time:0.0261224 stream_index:0
pts:215471 pts_time:4.88596 dts:215471 dts_time:4.88596 duration:1152 duration_time:0.0261224 stream_index:0
pts:216623 pts_time:4.91209 dts:216623 dts_time:4.91209 duration:1152 duration_time:0.0261224 stream_index:0
pts:217775 pts_time:4.93821 dts:217775 dts_time:4.93821 duration:1152 duration_time:0.0261224 stream_index:0
pts:218927 pts_time:4.96433 dts:218927 dts_time:4.96433 duration:1152 duration_time:0.0261224 stream_index:0
pts:220079 pts_time:4.99045 dts:220079 dts_time:4.99045 duration:1152 duration_time:0.0261224 stream_index:0
pts:221231 pts_time:5.01658 dts:221231 dts_time:5.01658 duration:1152 duration_time:0.0261224 stream_index:0
pts:222383 pts_time:5.0427 dts:222383 dts_time:5.0427 duration:1152 duration_time:0.0261224 stream_index:0
pts:223535 pts_time:5.06882 dts:223535 dts_time:5.06882 duration:1152 duration_time:0.0261224 stream_index:0
pts:224687 pts_time:5.09494 dts:224687 dts_time:5.09494 duration:1152 duration_time:0.0261224 stream_index:0
pts:225839 pts_time:5.12107 dts:225839 dts_time:5.12107 duration:1152 duration_time:0.0261224 stream_index:0
pts:226991 pts_time:5.14719 dts:226991 dts_time:5.14719 duration:1152 duration_time:0.0261224 stream_index:0
pts:228143 pts_time:5.17331 dts:228143 dts_time:5.17331 duration:1152 duration_time:0.0261224 stream_index:0
pts:229295 pts_time:5.19943 dts:229295 dts_time:5.19943 duration:1152 duration_time:0.0261224 stream_index:0
pts:230447 pts_time:5.22556 dts:230447 dts_time:5.22556 duration:1152 duration_time:0.0261224 stream_index:0
pts:231599 pts_time:5.25168 dts:231599 dts_time:5.25168 duration:1152 duration_time:0.0261224 stream_index:0
pts:232751 pts_time:5.2778 dts:232751 dts_time:5.2778 duration:1152 duration_time:0.0261224 stream_index:0
pts:233903 pts_time:5.30392 dts:233903 dts_time:5.30392 duration:1152 duration_time:0.0261224 stream_index:0
pts:235055 pts_time:5.33005 dts:235055 dts_time:5.33005 duration:1152 duration_time:0.0261224 stream_index:0
pts:236207 pts_time:5.35617 dts:236207 dts_time:5.35617 duration:1152 duration_time:0.0261224 stream_index:0
pts:237359 pts_time:5.38229 dts:237359 dts_time:5.38229 duration:1152 duration_time:0.0261224 stream_index:0
pts:238511 pts_time:5.40841 dts:238511 dts_time:5.40841 duration:1152 duration_time:0.0261224 stream_index:0
pts:239663 pts_time:5.43454 dts:239663 dts_time:5.43454 duration:1152 duration_time:0.0261224 stream_index:0
pts:240815 pts_time:5.46066 dts:240815 dts_time:5.46066 duration:1152 duration_time:0.0261224 stream_index:0
pts:241967 pts_time:5.48678 dts:241967 dts_time:5.48678 duration:1152 duration_time:0.0261224 stream_index:0
pts:243119 pts_time:5.5129 dts:243119 dts_time:5.5129 duration:1152 duration_time:0.0261224 stream_index:0
pts:244271 pts_time:5.53902 dts:244271 dts_time:5.53902 duration:1152 duration_time:0.0261224 stream_index:0
pts:245423 pts_time:5.56515 dts:245423 dts_time:5.56515 duration:1152 duration_time:0.0261224 stream_index:0
pts:246575 pts_time:5.59127 dts:246575 dts_time:5.59127 duration:1152 duration_time:0.0261224 stream_index:0
pts:247727 pts_time:5.61739 dts:247727 dts_time:5.61739 duration:1152 duration_time:0.0261224 stream_index:0
pts:248879 pts_time:5.64351 dts:248879 dts_time:5.64351 duration:1152 duration_time:0.0261224 stream_index:0
pts:250031 pts_time:5.66964 dts:250031 dts_time:5.66964 duration:1152 duration_time:0.0261224 stream_index:0
pts:251183 pts_time:5.69576 dts:251183 dts_time:5.69576 duration:1152 duration_time:0.0261224 stream_index:0
pts:252335 pts_time:5.72188 dts:252335 dts_time:5.72188 duration:1152 duration_time:0.0261224 stream_index:0
pts:253487 pts_time:5.748 dts:253487 dts_time:5.748 duration:1152 duration_time:0.0261224 stream_index:0
pts:254639 pts_time:5.77413 dts:254639 dts_time:5.77413 duration:1152 duration_time:0.0261224 stream_index:0
pts:255791 pts_time:5.80025 dts:255791 dts_time:5.80025 duration:1152 duration_time:0.0261224 stream_index:0
pts:256943 pts_time:5.82637 dts:256943 dts_time:5.82637 duration:1152 duration_time:0.0261224 stream_index:0
pts:258095 pts_time:5.85249 dts:258095 dts_time:5.85249 duration:1152 duration_time:0.0261224 stream_index:0
pts:259247 pts_time:5.87862 dts:259247 dts_time:5.87862 duration:1152 duration_time:0.0261224 stream_index:0
pts:260399 pts_time:5.90474 dts:260399 dts_time:5.90474 duration:1152 duration_time:0.0261224 stream_index:0
pts:261551 pts_time:5.93086 dts:261551 dts_time:5.93086 duration:1152 duration_time:0.0261224 stream_index:0
pts:262703 pts_time:5.95698 dts:262703 dts_time:5.95698 duration:1152 duration_time:0.0261224 stream_index:0
pts:263855 pts_time:5.98311 dts:263855 dts_time:5.98311 duration:1152 duration_time:0.0261224 stream_index:0
pts:265007 pts_time:6.00923 dts:265007 dts_time:6.00923 duration:1152 duration_time:0.0261224 stream_index:0
pts:266159 pts_time:6.03535 dts:266159 dts_time:6.03535 duration:1152 duration_time:0.0261224 stream_index:0
pts:267311 pts_time:6.06147 dts:267311 dts_time:6.06147 duration:1152 duration_time:0.0261224 stream_index:0
pts:268463 pts_time:6.0876 dts:268463 dts_time:6.0876 duration:1152 duration_time:0.0261224 stream_index:0
pts:269615 pts_time:6.11372 dts:269615 dts_time:6.11372 duration:1152 duration_time:0.0261224 stream_index:0
pts:270767 pts_time:6.13984 dts:270767 dts_time:6.13984 duration:1152 duration_time:0.0261224 stream_index:0
pts:271919 pts_time:6.16596 dts:271919 dts_time:6.16596 duration:1152 duration_time:0.0261224 stream_index:0
pts:273071 pts_time:6.19209 dts:273071 dts_time:6.19209 duration:1152 duration_time:0.0261224 stream_index:0
pts:274223 pts_time:6.21821 dts:274223 dts_time:6.21821 duration:1152 duration_time:0.0261224 stream_index:0
pts:275375 pts_time:6.24433 dts:275375 dts_time:6.24433 duration:1152 duration_time:0.0261224 stream_index:0
pts:276527 pts_time:6.27045 dts:276527 dts_time:6.27045 duration:1152 duration_time:0.0261224 stream_index:0
pts:277679 pts_time:6.29658 dts:277679 dts_time:6.29658 duration:1152 duration_time:0.0261224 stream_index:0
pts:278831 pts_time:6.3227 dts:278831 dts_time:6.3227 duration:1152 duration_time:0.0261224 stream_index:0
pts:279983 pts_time:6.34882 dts:279983 dts_time:6.34882 duration:1152 duration_time:0.0261224 stream_index:0
pts:281135 pts_time:6.37494 dts:281135 dts_time:6.37494 duration:1152 duration_time:0.0261224 stream_index:0
pts:282287 pts_time:6.40107 dts:282287 dts_time:6.40107 duration:1152 duration_time:0.0261224 stream_index:0
pts:283439 pts_time:6.42719 dts:283439 dts_time:6.42719 duration:1152 duration_time:0.0261224 stream_index:0
pts:284591 pts_time:6.45331 dts:284591 dts_time:6.45331 duration:1152 duration_time:0.0261224 stream_index:0
pts:285743 pts_time:6.47943 dts:285743 dts_time:6.47943 duration:1152 duration_time:0.0261224 stream_index:0
pts:286895 pts_time:6.50556 dts:286895 dts_time:6.50556 duration:1152 duration_time:0.0261224 stream_index:0
pts:288047 pts_time:6.53168 dts:288047 dts_time:6.53168 duration:1152 duration_time:0.0261224 stream_index:0
pts:289199 pts_time:6.5578 dts:289199 dts_time:6.5578 duration:1152 duration_time:0.0261224 stream_index:0
pts:290351 pts_time:6.58392 dts:290351 dts_time:6.58392 duration:1152 duration_time:0.0261224 stream_index:0
pts:291503 pts_time:6.61005 dts:291503 dts_time:6.61005 duration:1152 duration_time:0.0261224 stream_index:0
pts:292655 pts_time:6.63617 dts:292655 dts_time:6.63617 duration:1152 duration_time:0.0261224 stream_index:0
pts:293807 pts_time:6.66229 dts:293807 dts_time:6.66229 duration:1152 duration_time:0.0261224 stream_index:0
pts:294959 pts_time:6.68841 dts:294959 dts_time:6.68841 duration:1152 duration_time:0.0261224 stream_index:0
pts:296111 pts_time:6.71454 dts:296111 dts_time:6.71454 duration:1152 duration_time:0.0261224 stream_index:0
pts:297263 pts_time:6.74066 dts:297263 dts_time:6.74066 duration:1152 duration_time:0.0261224 stream_index:0
pts:298415 pts_time:6.76678 dts:298415 dts_time:6.76678 duration:1152 duration_time:0.0261224 stream_index:0
pts:299567 pts_time:6.7929 dts:299567 dts_time:6.7929 duration:1152 duration_time:0.0261224 stream_index:0
pts:300719 pts_time:6.81902 dts:300719 dts_time:6.81902 duration:1152 duration_time:0.0261224 stream_index:0
pts:301871 pts_time:6.84515 dts:301871 dts_time:6.84515 duration:1152 duration_time:0.0261224 stream_index:0
pts:303023 pts_time:6.87127 dts:303023 dts_time:6.87127 duration:1152 duration_time:0.0261224 stream_index:0
pts:304175 pts_time:6.89739 dts:304175 dts_time:6.89739 duration:1152 duration_time:0.0261224 stream_index:0
pts:305327 pts_time:6.92351 dts:305327 dts_time:6.92351 duration:1152 duration_time:0.0261224 stream_index:0
pts:306479 pts_time:6.94964 dts:306479 dts_time:6.94964 duration:1152 duration_time:0.0261224 stream_index:0
pts:307631 pts_time:6.97576 dts:307631 dts_time:6.97576 duration:1152 duration_time:0.0261224 stream_index:0
pts:308783 pts_time:7.00188 dts:308783 dts_time:7.00188 duration:1152 duration_time:0.0261224 stream_index:0
pts:309935 pts_time:7.028 dts:309935 dts_time:7.028 duration:1152 duration_time:0.0261224 stream_index:0
pts:311087 pts_time:7.05413 dts:311087 dts_time:7.05413 duration:1152 duration_time:0.0261224 stream_index:0
pts:312239 pts_time:7.08025 dts:312239 dts_time:7.08025 duration:1152 duration_time:0.0261224 stream_index:0
pts:313391 pts_time:7.10637 dts:313391 dts_time:7.10637 duration:1152 duration_time:0.0261224 stream_index:0
pts:314543 pts_time:7.13249 dts:314543 dts_time:7.13249 duration:1152 duration_time:0.0261224 stream_index:0
pts:315695 pts_time:7.15862 dts:315695 dts_time:7.15862 duration:1152 duration_time:0.0261224 stream_index:0
pts:316847 pts_time:7.18474 dts:316847 dts_time:7.18474 duration:1152 duration_time:0.0261224 stream_index:0
pts:317999 pts_time:7.21086 dts:317999 dts_time:7.21086 duration:1152 duration_time:0.0261224 stream_index:0
pts:319151 pts_time:7.23698 dts:319151 dts_time:7.23698 duration:1152 duration_time:0.0261224 stream_index:0
pts:320303 pts_time:7.26311 dts:320303 dts_time:7.26311 duration:1152 duration_time:0.0261224 stream_index:0
pts:321455 pts_time:7.28923 dts:321455 dts_time:7.28923 duration:1152 duration_time:0.0261224 stream_index:0
pts:322607 pts_time:7.31535 dts:322607 dts_time:7.31535 duration:1152 duration_time:0.0261224 stream_index:0
pts:323759 pts_time:7.34147 dts:323759 dts_time:7.34147 duration:1152 duration_time:0.0261224 stream_index:0
pts:324911 pts_time:7.3676 dts:324911 dts_time:7.3676 duration:1152 duration_time:0.0261224 stream_index:0
pts:326063 pts_time:7.39372 dts:326063 dts_time:7.39372 duration:1152 duration_time:0.0261224 stream_index:0
pts:327215 pts_time:7.41984 dts:327215 dts_time:7.41984 duration:1152 duration_time:0.0261224 stream_index:0
pts:328367 pts_time:7.44596 dts:328367 dts_time:7.44596 duration:1152 duration_time:0.0261224 stream_index:0
pts:329519 pts_time:7.47209 dts:329519 dts_time:7.47209 duration:1152 duration_time:0.0261224 stream_index:0
pts:330671 pts_time:7.49821 dts:330671 dts_time:7.49821 duration:1152 duration_time:0.0261224 stream_index:0
pts:331823 pts_time:7.52433 dts:331823 dts_time:7.52433 duration:1152 duration_time:0.0261224 stream_index:0
pts:332975 pts_time:7.55045 dts:332975 dts_time:7.55045 duration:1152 duration_time:0.0261224 stream_index:0
pts:334127 pts_time:7.57658 dts:334127 dts_time:7.57658 duration:1152 duration_time:0.0261224 stream_index:0
pts:335279 pts_time:7.6027 dts:335279 dts_time:7.6027 duration:1152 duration_time:0.0261224 stream_index:0
pts:336431 pts_time:7.62882 dts:336431 dts_time:7.62882 duration:1152 duration_time:0.0261224 stream_index:0
pts:337583 pts_time:7.65494 dts:337583 dts_time:7.65494 duration:1152 duration_time:0.0261224 stream_index:0
pts:338735 pts_time:7.68107 dts:338735 dts_time:7.68107 duration:1152 duration_time:0.0261224 stream_index:0
pts:339887 pts_time:7.70719 dts:339887 dts_time:7.70719 duration:1152 duration_time:0.0261224 stream_index:0
pts:341039 pts_time:7.73331 dts:341039 dts_time:7.73331 duration:1152 duration_time:0.0261224 stream_index:0
pts:342191 pts_time:7.75943 dts:342191 dts_time:7.75943 duration:1152 duration_time:0.0261224 stream_index:0
pts:343343 pts_time:7.78556 dts:343343 dts_time:7.78556 duration:1152 duration_time:0.0261224 stream_index:0
pts:344495 pts_time:7.81168 dts:344495 dts_time:7.81168 duration:1152 duration_time:0.0261224 stream_index:0
pts:345647 pts_time:7.8378 dts:345647 dts_time:7.8378 duration:1152 duration_time:0.0261224 stream_index:0
pts:346799 pts_time:7.86392 dts:346799 dts_time:7.86392 duration:1152 duration_time:0.0261224 stream_index:0
pts:347951 pts_time:7.89005 dts:347951 dts_time:7.89005 duration:1152 duration_time:0.0261224 stream_index:0
pts:349103 pts_time:7.91617 dts:349103 dts_time:7.91617 duration:1152 duration_time:0.0261224 stream_index:0
pts:350255 pts_time:7.94229 dts:350255 dts_time:7.94229 duration:1152 duration_time:0.0261224 stream_index:0
pts:351407 pts_time:7.96841 dts:351407 dts_time:7.96841 duration:1152 duration_time:0.0261224 stream_index:0
pts:352559 pts_time:7.99454 dts:352559 dts_time:7.99454 duration:1152 duration_time:0.0261224 stream_index:0
pts:353711 pts_time:8.02066 dts:353711 dts_time:8.02066 duration:1152 duration_time:0.0261224 stream_index:0
pts:354863 pts_time:8.04678 dts:354863 dts_time:8.04678 duration:1152 duration_time:0.0261224 stream_index:0
pts:356015 pts_time:8.0729 dts:356015 dts_time:8.0729 duration:1152 duration_time:0.0261224 stream_index:0
pts:357167 pts_time:8.09902 dts:357167 dts_time:8.09902 duration:1152 duration_time:0.0261224 stream_index:0
pts:358319 pts_time:8.12515 dts:358319 dts_time:8.12515 duration:1152 duration_time:0.0261224 stream_index:0
pts:359471 pts_time:8.15127 dts:359471 dts_time:8.15127 duration:1152 duration_time:0.0261224 stream_index:0
pts:360623 pts_time:8.17739 dts:360623 dts_time:8.17739 duration:1152 duration_time:0.0261224 stream_index:0
pts:361775 pts_time:8.20351 dts:361775 dts_time:8.20351 duration:1152 duration_time:0.0261224 stream_index:0
pts:362927 pts_time:8.22964 dts:362927 dts_time:8.22964 duration:1152 duration_time:0.0261224 stream_index:0
pts:364079 pts_time:8.25576 dts:364079 dts_time:8.25576 duration:1152 duration_time:0.0261224 stream_index:0
pts:365231 pts_time:8.28188 dts:365231 dts_time:8.28188 duration:1152 duration_time:0.0261224 stream_index:0
pts:366383 pts_time:8.308 dts:366383 dts_time:8.308 duration:1152 duration_time:0.0261224 stream_index:0
pts:367535 pts_time:8.33413 dts:367535 dts_time:8.33413 duration:1152 duration_time:0.0261224 stream_index:0
pts:368687 pts_time:8.36025 dts:368687 dts_time:8.36025 duration:1152 duration_time:0.0261224 stream_index:0
pts:369839 pts_time:8.38637 dts:369839 dts_time:8.38637 duration:1152 duration_time:0.0261224 stream_index:0
pts:370991 pts_time:8.41249 dts:370991 dts_time:8.41249 duration:1152 duration_time:0.0261224 stream_index:0
pts:372143 pts_time:8.43862 dts:372143 dts_time:8.43862 duration:1152 duration_time:0.0261224 stream_index:0
pts:373295 pts_time:8.46474 dts:373295 dts_time:8.46474 duration:1152 duration_time:0.0261224 stream_index:0
pts:374447 pts_time:8.49086 dts:374447 dts_time:8.49086 duration:1152 duration_time:0.0261224 stream_index:0
pts:375599 pts_time:8.51698 dts:375599 dts_time:8.51698 duration:1152 duration_time:0.0261224 stream_index:0
pts:376751 pts_time:8.54311 dts:376751 dts_time:8.54311 duration:1152 duration_time:0.0261224 stream_index:0
pts:377903 pts_time:8.56923 dts:377903 dts_time:8.56923 duration:1152 duration_time:0.0261224 stream_index:0
pts:379055 pts_time:8.59535 dts:379055 dts_time:8.59535 duration:1152 duration_time:0.0261224 stream_index:0
pts:380207 pts_time:8.62147 dts:380207 dts_time:8.62147 duration:1152 duration_time:0.0261224 stream_index:0
pts:381359 pts_time:8.6476 dts:381359 dts_time:8.6476 duration:1152 duration_time:0.0261224 stream_index:0
pts:382511 pts_time:8.67372 dts:382511 dts_time:8.67372 duration:1152 duration_time:0.0261224 stream_index:0
pts:383663 pts_time:8.69984 dts:383663 dts_time:8.69984 duration:1152 duration_time:0.0261224 stream_index:0
pts:384815 pts_time:8.72596 dts:384815 dts_time:8.72596 duration:1152 duration_time:0.0261224 stream_index:0
pts:385967 pts_time:8.75209 dts:385967 dts_time:8.75209 duration:1152 duration_time:0.0261224 stream_index:0
pts:387119 pts_time:8.77821 dts:387119 dts_time:8.77821 duration:1152 duration_time:0.0261224 stream_index:0
pts:388271 pts_time:8.80433 dts:388271 dts_time:8.80433 duration:1152 duration_time:0.0261224 stream_index:0
pts:389423 pts_time:8.83045 dts:389423 dts_time:8.83045 duration:1152 duration_time:0.0261224 stream_index:0
pts:390575 pts_time:8.85658 dts:390575 dts_time:8.85658 duration:1152 duration_time:0.0261224 stream_index:0
pts:391727 pts_time:8.8827 dts:391727 dts_time:8.8827 duration:1152 duration_time:0.0261224 stream_index:0
pts:392879 pts_time:8.90882 dts:392879 dts_time:8.90882 duration:1152 duration_time:0.0261224 stream_index:0
pts:394031 pts_time:8.93494 dts:394031 dts_time:8.93494 duration:1152 duration_time:0.0261224 stream_index:0
pts:395183 pts_time:8.96107 dts:395183 dts_time:8.96107 duration:1152 duration_time:0.0261224 stream_index:0
pts:396335 pts_time:8.98719 dts:396335 dts_time:8.98719 duration:1152 duration_time:0.0261224 stream_index:0
pts:397487 pts_time:9.01331 dts:397487 dts_time:9.01331 duration:1152 duration_time:0.0261224 stream_index:0
pts:398639 pts_time:9.03943 dts:398639 dts_time:9.03943 duration:1152 duration_time:0.0261224 stream_index:0
pts:399791 pts_time:9.06556 dts:399791 dts_time:9.06556 duration:1152 duration_time:0.0261224 stream_index:0
pts:400943 pts_time:9.09168 dts:400943 dts_time:9.09168 duration:1152 duration_time:0.0261224 stream_index:0
pts:402095 pts_time:9.1178 dts:402095 dts_time:9.1178 duration:1152 duration_time:0.0261224 stream_index:0
pts:403247 pts_time:9.14392 dts:403247 dts_time:9.14392 duration:1152 duration_time:0.0261224 stream_index:0
pts:404399 pts_time:9.17005 dts:404399 dts_time:9.17005 duration:1152 duration_time:0.0261224 stream_index:0
pts:405551 pts_time:9.19617 dts:405551 dts_time:9.19617 duration:1152 duration_time:0.0261224 stream_index:0
pts:406703 pts_time:9.22229 dts:406703 dts_time:9.22229 duration:1152 duration_time:0.0261224 stream_index:0
pts:407855 pts_time:9.24841 dts:407855 dts_time:9.24841 duration:1152 duration_time:0.0261224 stream_index:0
pts:409007 pts_time:9.27454 dts:409007 dts_time:9.27454 duration:1152 duration_time:0.0261224 stream_index:0
pts:410159 pts_time:9.30066 dts:410159 dts_time:9.30066 duration:1152 duration_time:0.0261224 stream_index:0
pts:411311 pts_time:9.32678 dts:411311 dts_time:9.32678 duration:1152 duration_time:0.0261224 stream_index:0
pts:412463 pts_time:9.3529 dts:412463 dts_time:9.3529 duration:1152 duration_time:0.0261224 stream_index:0
pts:413615 pts_time:9.37902 dts:413615 dts_time:9.37902 duration:1152 duration_time:0.0261224 stream_index:0
pts:414767 pts_time:9.40515 dts:414767 dts_time:9.40515 duration:1152 duration_time:0.0261224 stream_index:0
pts:415919 pts_time:9.43127 dts:415919 dts_time:9.43127 duration:1152 duration_time:0.0261224 stream_index:0
pts:417071 pts_time:9.45739 dts:417071 dts_time:9.45739 duration:1152 duration_time:0.0261224 stream_index:0
pts:418223 pts_time:9.48351 dts:418223 dts_time:9.48351 duration:1152 duration_time:0.0261224 stream_index:0
pts:419375 pts_time:9.50964 dts:419375 dts_time:9.50964 duration:1152 duration_time:0.0261224 stream_index:0
pts:420527 pts_time:9.53576 dts:420527 dts_time:9.53576 duration:1152 duration_time:0.0261224 stream_index:0
pts:421679 pts_time:9.56188 dts:421679 dts_time:9.56188 duration:1152 duration_time:0.0261224 stream_index:0
pts:422831 pts_time:9.588 dts:422831 dts_time:9.588 duration:1152 duration_time:0.0261224 stream_index:0
pts:423983 pts_time:9.61413 dts:423983 dts_time:9.61413 duration:1152 duration_time:0.0261224 stream_index:0
pts:425135 pts_time:9.64025 dts:425135 dts_time:9.64025 duration:1152 duration_time:0.0261224 stream_index:0
pts:426287 pts_time:9.66637 dts:426287 dts_time:9.66637 duration:1152 duration_time:0.0261224 stream_index:0
pts:427439 pts_time:9.69249 dts:427439 dts_time:9.69249 duration:1152 duration_time:0.0261224 stream_index:0
pts:428591 pts_time:9.71862 dts:428591 dts_time:9.71862 duration:1152 duration_time:0.0261224 stream_index:0
pts:429743 pts_time:9.74474 dts:429743 dts_time:9.74474 duration:1152 duration_time:0.0261224 stream_index:0
pts:430895 pts_time:9.77086 dts:430895 dts_time:9.77086 duration:1152 duration_time:0.0261224 stream_index:0
pts:432047 pts_time:9.79698 dts:432047 dts_time:9.79698 duration:1152 duration_time:0.0261224 stream_index:0
pts:433199 pts_time:9.82311 dts:433199 dts_time:9.82311 duration:1152 duration_time:0.0261224 stream_index:0
pts:434351 pts_time:9.84923 dts:434351 dts_time:9.84923 duration:1152 duration_time:0.0261224 stream_index:0
pts:435503 pts_time:9.87535 dts:435503 dts_time:9.87535 duration:1152 duration_time:0.0261224 stream_index:0
pts:436655 pts_time:9.90147 dts:436655 dts_time:9.90147 duration:1152 duration_time:0.0261224 stream_index:0
pts:437807 pts_time:9.9276 dts:437807 dts_time:9.9276 duration:1152 duration_time:0.0261224 stream_index:0
pts:438959 pts_time:9.95372 dts:438959 dts_time:9.95372 duration:1152 duration_time:0.0261224 stream_index:0
pts:440111 pts_time:9.97984 dts:440111 dts_time:9.97984 duration:1105 duration_time:0.0250567 stream_index:0
